<svg id="_x33_0" enable-background="new 0 0 64 64" height="512" viewBox="0 0 64 64" width="512" xmlns="http://www.w3.org/2000/svg"><g><g><path d="m35 24v2h-.06-6v4.64c0 .75-.61 1.36-1.36 1.36-.4 0-.79-.18-1.04-.49l-4.6-5.51h-11c-1.65 0-3-1.34-3-3v-16c0-1.66 1.35-3 3-3h26.06c.85 0 1.62.36 2.16.92-1.02.87-1.88 1.92-2.56 3.08h-24.66v14h23.06z" fill="#e6e9ed"/><path d="m56 37v16c0 1.66-1.34 3-3 3h-11l-4.59 5.51c-.26.31-.64.49-1.05.49-.75 0-1.36-.61-1.36-1.36v-4.64h-6v-4h23v-14h-23.68c-.53-1.49-1.34-2.85-2.37-4h9.05 14 4c1.66 0 3 1.34 3 3z" fill="#e6e9ed"/><path d="m28.32 38h23.68v14h-23v-10c0-1.4-.24-2.75-.68-4z" fill="#fcd770"/><path d="m11.94 8h24.66c-1.02 1.76-1.6 3.81-1.6 6v8h-23.06z" fill="#b4dd7f"/><path d="m15 58h-2c-3.87 0-7-3.13-7-7v-1h-4v-6c0-2.14.48-4.18 1.35-6h10.65c2.76 0 5 2.24 5 5v6c0 1.66 1.34 3 3 3h7v4 6h-14z" fill="#f0d0b4"/><path d="m28.32 38c.44 1.25.68 2.6.68 4v10h-7c-1.66 0-3-1.34-3-3v-6c0-2.76-2.24-5-5-5h-10.65c2.25-4.73 7.07-8 12.65-8h1c3.56 0 6.75 1.54 8.95 4 1.03 1.15 1.84 2.51 2.37 4z" fill="#b27946"/><path d="m49 30v4h-14v-8-2h7c1.66 0 3-1.34 3-3v-6c0-2.76 2.24-5 5-5h10.65c.87 1.82 1.35 3.86 1.35 6v6h-4v1c0 3.87-3.13 7-7 7z" fill="#f0d0b4"/><path d="m39.16 4.92c2.1-1.82 4.84-2.92 7.84-2.92h1c5.58 0 10.4 3.27 12.65 8h-10.65c-2.76 0-5 2.24-5 5v6c0 1.66-1.34 3-3 3h-7v-2-8c0-2.19.58-4.24 1.6-6 .68-1.16 1.54-2.21 2.56-3.08z" fill="#656d78"/></g><g><path d="m8 44c-.552 0-1-.449-1-1h-2c0 1.654 1.346 3 3 3s3-1.346 3-3h-2c0 .551-.448 1-1 1z"/><path d="m36.707 49.707 3.293-3.293 3.293 3.293 1.414-1.414-3.293-3.293 3.293-3.293-1.414-1.414-3.293 3.293-3.293-3.293-1.414 1.414 3.293 3.293-3.293 3.293z"/><path d="m48 1h-1c-2.946 0-5.657.996-7.84 2.654-.641-.413-1.385-.654-2.16-.654h-26.056c-2.206 0-4 1.794-4 4v16c0 2.206 1.794 4 4 4h10.531l4.292 5.15c.45.54 1.111.85 1.814.85 1.303 0 2.362-1.06 2.362-2.362v-3.638h4.057v6h-6.418-1.223c-2.367-2.46-5.684-4-9.359-4h-1c-8.271 0-15 6.729-15 15v7h4c0 4.411 3.589 8 8 8h1v4h16v-6h4v3.638c0 1.302 1.06 2.362 2.362 2.362.703 0 1.364-.31 1.814-.85l4.293-5.15h10.531c2.206 0 4-1.794 4-4v-16c0-2.206-1.794-4-4-4h-3v-2h1c4.411 0 8-3.589 8-8h4v-7c0-8.271-6.729-15-15-15zm0 2c4.59 0 8.623 2.398 10.937 6h-8.937c-3.309 0-6 2.691-6 6v6c0 1.103-.897 2-2 2h-6v-9c0-6.065 4.935-11 11-11zm-14 18h-21.056v-12h22.059c-.644 1.54-1.003 3.229-1.003 5zm-6.056 4v5.638c0 .307-.444.469-.64.231l-4.891-5.869h-11.469c-1.103 0-2-.897-2-2v-16c0-1.103.897-2 2-2h26.056c.192 0 .378.037.559.09-.556.589-1.057 1.226-1.496 1.91h-25.119v16h23.056v2zm-11.944 6h1c6.065 0 11 4.935 11 11v9h-6c-1.103 0-2-.897-2-2v-6c0-3.309-2.691-6-6-6h-8.937c2.314-3.602 6.347-6 10.937-6zm13.637 8h21.363v12h-21v-9c0-1.034-.134-2.035-.363-3zm-13.637 22v-2h4v-2h-7c-3.309 0-6-2.691-6-6v-2h-4v-5c0-1.771.359-3.46 1.003-5h9.997c2.206 0 4 1.794 4 4v6c0 2.206 1.794 4 4 4h6v8zm39-24v16c0 1.103-.897 2-2 2h-11.469l-4.892 5.87c-.196.236-.639.075-.639-.232v-5.638h-6v-2h23v-16h-24.003c-.293-.702-.654-1.367-1.06-2h25.063c1.103 0 2 .897 2 2zm6-16h-4v2c0 3.309-2.691 6-6 6h-7v2h4v2h-12v-8h6c2.206 0 4-1.794 4-4v-6c0-2.206 1.794-4 4-4h9.997c.644 1.54 1.003 3.229 1.003 5z"/><path d="m56 16c-.552 0-1-.449-1-1h-2c0 1.654 1.346 3 3 3s3-1.346 3-3h-2c0 .551-.448 1-1 1z"/><path d="m22 16.586-2.293-2.293-1.414 1.414 3.707 3.707 7.707-7.707-1.414-1.414z"/></g></g></svg>