<?xml version="1.0" standalone="no"?>
<!DOCTYPE svg PUBLIC "-//W3C//DTD SVG 20010904//EN"
 "http://www.w3.org/TR/2001/REC-SVG-20010904/DTD/svg10.dtd">
<svg version="1.0" xmlns="http://www.w3.org/2000/svg"
 width="512.000000pt" height="512.000000pt" viewBox="0 0 512.000000 512.000000"
 preserveAspectRatio="xMidYMid meet">
<metadata>
Created by potrace 1.11, written by Peter Selinger 2001-2013
</metadata>
<g transform="translate(0.000000,512.000000) scale(0.100000,-0.100000)"
fill="#000000" stroke="none">
<path d="M3650 5037 c-3 -3 -27 -7 -53 -10 -115 -14 -295 -85 -414 -164 l-52
-34 -43 23 -43 23 -1125 0 -1125 0 -46 -21 c-91 -42 -163 -129 -185 -224 -13
-57 -12 -1367 1 -1420 32 -124 132 -223 246 -244 13 -3 223 -5 466 -5 l441 -1
68 -82 c38 -46 71 -85 74 -88 3 -3 35 -41 70 -85 62 -76 99 -119 146 -171 12
-13 36 -30 55 -38 l34 -15 -29 -1 c-21 0 -44 14 -85 53 -142 131 -350 229
-541 256 -111 16 -383 6 -485 -17 -416 -94 -750 -395 -884 -797 -49 -147 -58
-243 -60 -607 l-1 -328 160 0 c159 0 160 0 161 -22 2 -118 56 -270 127 -360
40 -52 133 -135 184 -166 55 -33 152 -71 198 -78 14 -2 36 -6 50 -8 14 -3 55
-5 93 -5 l67 -1 0 -160 0 -160 640 0 640 0 0 240 0 240 160 0 160 0 0 -163 c0
-154 1 -166 25 -213 31 -61 80 -94 149 -101 90 -8 117 13 321 259 l180 217
425 1 c234 0 444 3 467 5 76 6 171 67 220 140 53 79 53 74 53 814 0 500 -4
697 -12 726 -31 105 -123 198 -218 221 -19 4 -38 9 -42 10 -5 1 -71 2 -148 3
l-140 1 0 80 0 80 68 1 c83 1 101 3 182 24 256 66 461 323 469 588 l1 27 161
0 161 0 -5 368 c-5 391 -8 417 -63 580 -31 94 -105 237 -164 318 -24 32 -83
98 -130 145 -170 168 -361 272 -600 324 -68 15 -418 33 -430 22z m-930 -2317
l0 -240 -237 0 -238 0 41 19 c47 22 88 70 101 121 5 19 9 104 8 188 l0 152
162 0 163 0 0 -240z"/>
</g>
</svg>
